<svg xmlns="http://www.w3.org/2000/svg" width="128" height="128" viewBox="0 0 128 128">
  <title>DOI Dedup Import</title>
  <rect x="10" y="12" width="108" height="104" rx="24" fill="#f8fafc"/>
  <rect x="29" y="24" width="64" height="78" rx="10" fill="#ffffff" stroke="#3f4b5b" stroke-width="5"/>
  <rect x="39" y="38" width="44" height="18" rx="6" fill="#1a73e8"/>
  <text x="61" y="51.5" text-anchor="middle" font-family="Arial, Helvetica, sans-serif" font-size="13" font-weight="700" fill="#ffffff">DOI</text>
  <rect x="39" y="67" width="39" height="5" rx="2.5" fill="#3f4b5b"/>
  <rect x="39" y="80" width="27" height="5" rx="2.5" fill="#3f4b5b"/>
  <path d="M38 94c15 13 38 13 53-2" fill="none" stroke="#188038" stroke-width="7" stroke-linecap="round"/>
  <path d="M86 83l8 8-10 8" fill="none" stroke="#188038" stroke-width="7" stroke-linecap="round" stroke-linejoin="round"/>
  <path d="M77 26l28-16" stroke="#f9ab00" stroke-width="6" stroke-linecap="round"/>
  <path d="M101 17l9-9M106 28l11 3M88 9l-3-10" stroke="#f9ab00" stroke-width="5" stroke-linecap="round"/>
  <circle cx="34" cy="31" r="8" fill="#d93025" stroke="#ffffff" stroke-width="3"/>
</svg>
